%
M48
M72
T01C0.0098
T02C0.0197
T03C0.0320
%
T01
X16232Y5319
X16626Y5319
X17020Y5319
X17020Y5712
X16626Y5712
X16232Y5712
X16232Y6106
X16626Y6106
X17020Y6106
T02
X4294Y2323
X5218Y2324
X6614Y2906
X7827Y2927
X8792Y2917
X9909Y2917
X11094Y2923
X12222Y2927
X13394Y2912
X14613Y2932
X16041Y2917
X17222Y2917
X18403Y2917
X19584Y2917
X20766Y2917
X22083Y2941
X23264Y2941
X24445Y2941
X25626Y2941
X26847Y2941
X28028Y2941
X29209Y2941
X30409Y2348
X31433Y2348
X21209Y6261
X16659Y4147
X15035Y7005
X11041Y8861
X9077Y7084
X7056Y7023
X5255Y6694
X4306Y6664
X24509Y10321
X25887Y10321
X28525Y9652
X29485Y8652
X27115Y8650
X25032Y8647
X30291Y6639
X31433Y6639
T03
X20016Y7052
X20016Y9052
X20253Y10287
X18253Y10287
M30
